<?xml version='1.0' encoding='UTF-8' standalone='no'?>
<svg version="1.2" baseProfile="tiny" width="296.926mm" height="209.973mm" xmlns:xlink="http://www.w3.org/1999/xlink" xmlns="http://www.w3.org/2000/svg" viewBox="0 0 3507 2480">
 <title>Qt SVG Document</title>
 <desc>Generated with Qt</desc>
 <defs/>
 <g fill="none" stroke-width="1" fill-rule="evenodd" stroke="black" stroke-linecap="square" stroke-linejoin="bevel">
  <g font-style="normal" fill="none" stroke-width="1" stroke="#000000" transform="matrix(1,0,0,1,0,0)" stroke-opacity="1" font-size="54.1667" stroke-linecap="square" font-weight="400" font-family=".SF NS Text" stroke-linejoin="bevel"/>
  <g font-style="normal" fill="none" stroke-width="1" stroke="#000000" transform="matrix(1,0,0,1,0,0)" stroke-opacity="1" font-size="54.1667" stroke-linecap="square" font-weight="400" font-family=".SF NS Text" stroke-linejoin="bevel"/>
  <g font-style="normal" fill="none" stroke-width="1" stroke="#000000" transform="matrix(11.8081,0,0,11.8081,0,0)" stroke-opacity="1" font-size="54.1667" stroke-linecap="square" font-weight="400" font-family=".SF NS Text" stroke-linejoin="bevel"/>
  <g font-style="normal" fill="none" stroke-width="1" stroke="#000000" transform="matrix(0.999751,0,0,0.999751,0,0)" stroke-opacity="1" font-size="54.1667" stroke-linecap="square" font-weight="400" font-family=".SF NS Text" stroke-linejoin="bevel"/>
  <g font-style="normal" fill="#ffffff" stroke="none" transform="matrix(0.999751,0,0,0.999751,0,0)" font-size="54.1667" font-weight="400" fill-opacity="1" font-family=".SF NS Text">
   <path fill-rule="evenodd" vector-effect="none" d="M-2,-2 L3510,-2 L3510,2483 L-2,2483 L-2,-2"/>
  </g>
  <g font-style="normal" fill="none" stroke-width="1" stroke="#000000" transform="matrix(0.999751,0,0,0.999751,0,0)" stroke-opacity="1" font-size="54.1667" stroke-linecap="square" font-weight="400" font-family=".SF NS Text" stroke-linejoin="bevel"/>
  <g font-style="normal" fill="none" stroke-width="1" stroke="#000000" transform="matrix(11.8081,0,0,11.8081,0,0)" stroke-opacity="1" font-size="54.1667" stroke-linecap="square" font-weight="400" font-family=".SF NS Text" stroke-linejoin="bevel"/>
  <g font-style="normal" fill="none" stroke-width="1" stroke="#000000" transform="matrix(11.8081,0,0,11.8081,0,0)" stroke-opacity="1" font-size="54.1667" stroke-linecap="square" font-weight="400" font-family=".SF NS Text" stroke-linejoin="bevel"/>
  <g font-style="normal" fill="none" stroke-width="1" stroke="#000000" transform="matrix(11.8081,0,0,11.8081,0,0)" stroke-opacity="1" font-size="54.1667" stroke-linecap="square" font-weight="400" font-family=".SF NS Text" stroke-linejoin="bevel"/>
  <g font-style="normal" fill="none" stroke-width="1" stroke="#000000" transform="matrix(11.8081,0,0,11.8081,0,0)" stroke-opacity="1" font-size="54.1667" stroke-linecap="square" font-weight="400" font-family=".SF NS Text" stroke-linejoin="bevel"/>
  <g font-style="normal" fill="none" stroke-width="1" stroke="#000000" transform="matrix(11.8081,0,0,11.8081,0,0)" stroke-opacity="1" font-size="54.1667" stroke-linecap="square" font-weight="400" font-family=".SF NS Text" stroke-linejoin="bevel"/>
  <g font-style="normal" fill="#ffffff" stroke="none" transform="matrix(11.8081,0,0,11.8081,0,0)" font-size="54.1667" font-weight="400" fill-opacity="1" font-family=".SF NS Text">
   <rect width="297" height="210" x="0" y="0"/>
  </g>
  <g font-style="normal" fill="none" stroke-width="1" stroke="#000000" transform="matrix(11.8081,0,0,11.8081,0,0)" stroke-opacity="1" font-size="54.1667" stroke-linecap="square" font-weight="400" font-family=".SF NS Text" stroke-linejoin="bevel"/>
  <g font-style="normal" fill="none" stroke-width="1" stroke="#000000" transform="matrix(11.8081,0,0,11.8081,0,0)" stroke-opacity="1" font-size="54.1667" stroke-linecap="square" font-weight="400" font-family=".SF NS Text" stroke-linejoin="bevel"/>
  <g font-style="normal" fill="#000000" stroke="none" transform="matrix(0.999751,0,0,0.999751,0,0)" font-size="54.1667" font-weight="400" fill-opacity="0" font-family=".SF NS Text">
   <rect width="3508" height="2480" x="0" y="0"/>
  </g>
  <g font-style="normal" fill="#becf50" stroke-width="3.07087" stroke="#232323" transform="matrix(0.999751,0,0,0.999751,0,0)" stroke-opacity="1" font-size="54.1667" stroke-linecap="square" font-weight="400" fill-opacity="1" font-family=".SF NS Text" stroke-linejoin="bevel">
   <path fill-rule="evenodd" vector-effect="none" d="M1678.21,1493.3 L1676.03,1495.96 L1673.01,1495.14 L1665.96,1522.27 L1669.23,1523.16 L1667.41,1529.92 L1664.14,1529.05 L1658,1552.13 L1660.93,1552.93 L1658.66,1556.28 L1685.4,1574.49 L1687.28,1571.66 L1696.61,1578.23 L1692.55,1584.04 L1708.1,1594.65 L1708.56,1593.96 L1713,1593.44 L1712.55,1589.3 L1717.56,1588.61 L1717.99,1594.23 L1716.31,1594.46 L1717.16,1603.16 L1716.9,1614.54 L1713.2,1614.9 L1665.62,1684.89 L1641.62,1719.74 L1625.45,1744.97 L1624.76,1750.08 L1622.81,1753.23 L1617.01,1759.87 L1614.66,1765.27 L1554.67,1951.8 L1519.99,2055.82 L1532.4,2177.66 L1524.14,2178.51 L1512.07,2056.27 L1547.71,1949.33 L1534.98,1945.3 L1545.15,1913.78 L1539.59,1912.01 L1582.2,1779.78 L1578.93,1778.74 L1580,1775.55 L1580.89,1773.75 L1582.75,1770.96 L1585.57,1772.89 L1616.65,1727.78 L1614.32,1726.23 L1617.2,1722.24 L1619.37,1723.81 L1656.2,1670.21 L1653.51,1668.23 L1656.61,1663.7 L1659.35,1665.61 L1705.99,1597.71 L1690.45,1587.09 L1677.71,1605.82 L1673.96,1603.2 L1677.5,1598.06 L1649.49,1578.97 L1618.23,1618.36 L1647.95,1638.92 L1631.74,1662.44 L1592.47,1635.29 L1580.25,1653.05 L1606.1,1684.15 L1536.15,1784.39 L1534.02,1782.84 L1537.84,1777.43 L1503.62,1736.05 L1501.9,1736.34 L1497.64,1727.14 L1486.45,1732.09 L1487.49,1734.45 L1486.33,1734.97 L1518.28,1807.07 L1512.78,1809.51 L1486.37,1749.89 L1472.74,1755.92 L1475.36,1762.01 L1471.58,1763.68 L1479.85,1782.39 L1393.21,1829.65 L1389.41,1828.22 L1394.92,1807.26 L1391.55,1806.4 L1395.06,1792.83 L1376.01,1787.46 L1370.64,1807.33 L1346.94,1899.86 L1309.48,1895.7 L1309.16,1898.97 L1306.09,1896.97 L1293.79,1915.54 L1320.11,1932.95 L1302.2,1960.01 L1304.33,1961.39 L1302.03,1964.87 L1324.27,1979.53 L1414.29,1843.29 L1450.3,1828.42 L1463.12,1837.66 L1517.02,1858.12 L1505.69,1880.49 L1498.22,1877.65 L1418.89,2034 L1412.55,2032.82 L1417.25,2023.57 L1377.64,2017.28 L1374.63,2025.34 L1368.73,2024.4 L1366.48,2030.39 L1362.58,2038.63 L1358.6,2048.09 L1354.91,2057.88 L1347.91,2072.41 L1352.42,2075.39 L1347.36,2083.18 L1342.41,2079.9 L1330.65,2097.96 L1236.02,2076.15 L1154.71,2068.09 L1119.07,2057.59 L1103.75,2051.96 L1078.42,2041.36 L1048.16,2027.86 L1011.33,2007.77 L991.862,1989.39 L983.922,1964.38 L964.762,1924 L964.145,1923.93 L954.732,1910.15 L949.376,1898.62 L940.454,1884.14 L930.964,1869.84 L911.708,1850.29 L907.204,1847.49 L899.507,1841.05 L892.576,1833.76 L904.309,1828.75 L913.338,1826.89 L936.983,1819.58 L954.139,1814.48 L957.864,1814.15 L991.331,1804.38 L1143.61,1762.91 L1152.63,1758.75 L1150.29,1751.67 L1164.89,1743.14 L1167.69,1750.37 L1169.66,1749.87 L1169.93,1751.04 L1175.88,1749.44 L1175.63,1748.71 L1179.35,1747.51 L1179.98,1749.24 L1184,1748.34 L1184.36,1749.43 L1188.59,1746.47 L1200.88,1739.88 L1207.11,1734.95 L1210.18,1734.99 L1212.27,1737.06 L1219.86,1733.63 L1216.67,1727.9 L1231.42,1722.26 L1234.05,1728.87 L1251.44,1723.15 L1253.76,1721.87 L1246.48,1710.38 L1241.43,1700.48 L1241.82,1699.74 L1234.52,1682.75 L1232.83,1683.24 L1229.29,1674.41 L1228.81,1672.42 L1227.73,1669.24 L1225.89,1660.44 L1225.29,1658.58 L1216.75,1637.21 L1222.44,1635.72 L1224.09,1634.53 L1225.4,1632.81 L1228.25,1626.14 L1230.09,1620.87 L1231.51,1615.37 L1232.3,1610.66 L1232.97,1604.47 L1234.71,1595.79 L1236.7,1587.43 L1237.6,1585.12 L1238.81,1583.27 L1239.43,1582.67 L1245.95,1577.25 L1257.25,1569.22 L1259.46,1568 L1264.65,1563.52 L1246.54,1538.58 L1242.43,1517.84 L1242.13,1512.46 L1242.27,1510.34 L1238.16,1498.31 L1236.62,1484.35 L1235.23,1478.71 L1235.06,1474.82 L1234.3,1474.71 L1232.61,1468.99 L1230.73,1464.46 L1229.95,1462.06 L1227.04,1456.4 L1221.28,1447.68 L1221.9,1447.21 L1218.06,1442.4 L1217.48,1442.56 L1215.98,1440.99 L1216.22,1440.53 L1213.31,1438.73 L1209.44,1436 L1205.1,1431.67 L1200.96,1428.13 L1201.51,1427.76 L1196.2,1421.15 L1195.52,1421.18 L1193.54,1418.38 L1187.09,1410.28 L1184.43,1407.42 L1177.84,1401.01 L1176.35,1395.2 L1175.65,1394.71 L1174.21,1390.83 L1174.77,1390.4 L1172.26,1385.98 L1162.19,1377.04 L1159.19,1372.94 L1158.81,1372.1 L1158.62,1369.52 L1159.74,1361.05 L1160.81,1354.04 L1161.39,1351.46 L1161.63,1349.02 L1161.36,1346.16 L1160.63,1341.97 L1159.38,1342.47 L1141.03,1352.78 L1121.48,1364.19 L1116.77,1363.55 L1077.84,1356.39 L1070.17,1355.19 L1040.95,1350.03 L1042.18,1343.21 L1042.96,1335.78 L1039.68,1326.16 L1038.82,1324.55 L1038.18,1324.14 L1036.59,1324.03 L1035.67,1323.39 L1035.03,1320.51 L1033.21,1318.4 L1030.7,1316.04 L1025.94,1312.87 L1024.47,1312.09 L1020.09,1310.57 L1018.69,1309.56 L1016.21,1307.04 L1014.57,1302.85 L1014.01,1301.9 L1013.49,1301.52 L1006.6,1300.55 L1004.86,1300.53 L1003.43,1299.96 L999.822,1296.42 L986.356,1281.79 L983.113,1278.76 L980.897,1275.13 L978.945,1267.33 L978.698,1264.7 L979.16,1262.09 L983.795,1244.21 L990.492,1244.73 L992.89,1243.72 L995.898,1241.23 L1000.2,1237.14 L1001.26,1236.58 L1003.68,1233.01 L1003.86,1232.33 L1003.11,1230.92 L1001.51,1228.99 L1001.53,1227.74 L999.51,1226.54 L999.217,1226 L999.185,1225.06 L997.999,1223.92 L998.051,1222.56 L997.352,1221.76 L997.611,1221.2 L996.931,1220.4 L996.881,1219.21 L995.932,1218.86 L994.922,1218.14 L994.305,1216.93 L994.513,1216.07 L994.044,1214.9 L993.771,1214.54 L992.971,1214.1 L991.525,1212.38 L990.644,1210.43 L988.759,1207.35 L987.789,1206.5 L986.515,1204.29 L983.785,1200.74 L985.039,1199.78 L988.113,1198.57 L994.35,1197.6 L995.183,1197.19 L995.159,1196.97 L993.234,1195.87 L992.292,1195.09 L989.93,1191.86 L988.557,1190.29 L985.888,1189.14 L983.53,1187.47 L981.508,1184.46 L980.412,1172.49 L980.772,1162.79 L980.342,1158.12 L980.489,1153.9 L981.556,1151.12 L981.285,1146.49 L981.975,1140.97 L982.849,1137.37 L982.217,1135.3 L980.016,1131.64 L977.599,1125.65 L975.992,1123.47 L974.81,1122.05 L972.821,1120.48 L970.77,1119.58 L967.766,1117.91 L966.982,1116.03 L967.288,1111.08 L967.602,1108.94 L969.262,1106.89 L971.21,1105.23 L972.508,1103.53 L974.046,1100.82 L975.072,1097.93 L976.827,1096.26 L981.1,1092.93 L981.484,1090.65 L981.613,1088.34 L986.042,1082.38 L988.472,1080.71 L990.379,1078.81 L993.318,1074.16 L994.873,1069.88 L999.456,1062.53 L1000.81,1055.96 L1001.11,1055.22 L1007.23,1052.01 L1011.26,1050.84 L1012.72,1049.83 L1014.57,1047.94 L1016.24,1047.1 L1017.57,1046.11 L1018.64,1044.64 L1019.29,1040.49 L1023.8,1033.42 L1024.6,1031.86 L1024.98,1026.84 L1025.19,1025.95 L1025.73,1026.02 L1027.14,1026.68 L1028.63,1026.8 L1030.31,1023.79 L1031.68,1020.38 L1032.91,1015.38 L1034.35,1012.12 L1036.66,1008.93 L1039.59,1004.2 L1040.7,1001.51 L1041.65,998.215 L1042.12,995.049 L1041.39,989.283 L1040.4,985.524 L1039.78,984.406 L1037.74,983.112 L1033.82,980.073 L1026.94,976.844 L1026.05,974.367 L1025.66,971.454 L1026.6,964.469 L1026.8,959.214 L1026.02,956.985 L1024.97,955.11 L1025.43,947.4 L1022.06,939.607 L1020.4,932.651 L1016.59,931.396 L1006.55,924.512 L999.104,920.671 L995.587,919.281 L993.034,919.022 L991.376,919.41 L989.874,920.168 L988.395,922.043 L985.946,926.061 L983.276,928.613 L978.343,931.602 L971.372,932.465 L948.724,924.118 L943.94,922.753 L937.543,922.308 L934.284,922.389 L927.316,919.541 L918.907,917.051 L908.81,912.858 L898.242,906.238 L895.864,903.497 L893.699,900.11 L890.944,897.568 L889.048,896.474 L885.406,895.461 L881.512,895.152 L879.671,895.218 L876.032,896.727 L871.869,899.781 L869.732,901.671 L867.178,903.459 L855.327,912.795 L849.848,918.043 L848.316,920.204 L848.725,921.891 L843.825,924.718 L835.117,928.516 L833.635,928.88 L831.935,929.735 L831.073,931.038 L830.067,931.948 L826.269,933.931 L825.748,934.888 L825.046,943.83 L823.507,948.319 L820.984,951.865 L813.185,958.309 L807.873,963.275 L806.18,964.4 L804.578,965.181 L801.92,965.866 L799.7,967.986 L798.079,968.508 L796.31,968.483 L794.877,968.086 L787.192,964.373 L782.921,962.867 L777.727,961.72 L775.335,961.741 L772.751,962.258 L769.688,963.264 L767.256,964.559 L765.408,961.117 L761.862,956.42 L758.042,952.384 L750.877,953.498 L744.165,948.14 L740,938.574 L735.218,929.389 L733.812,926.334 L730.212,921.231 L724.727,914.204 L724.155,906.745 L727.273,904.799 L743.146,905.226 L745.134,904.376 L747.251,902.432 L748.783,900.4 L749.082,899.383 L746.952,888.603 L746.761,886.117 L747.122,881.513 L748.46,878.286 L750.806,873.753 L754.048,869.088 L761.947,871.068 L763.897,871.3 L765.366,871.203 L766.963,870.844 L769.788,869.302 L771.541,867.725 L780.656,862.518 L784.346,861.12 L788.067,860.534 L791.445,860.624 L793.878,861.544 L795.497,862.557 L797.838,864.717 L799.487,867.502 L800.919,864.353 L802.179,862.394 L803.851,860.587 L807.962,858.575 L810.152,857.218 L802.241,849.17 L822.603,828.444 L822.88,828.333 L822.106,826.705 L823.686,820.738 L825.492,817.159 L826.356,817.495 L833.464,818.843 L836.027,818.771 L837.071,818.431 L838.79,817.514 L840.02,816.331 L841.191,814.205 L841.855,811.286 L841.501,808.289 L840.182,804.979 L838.94,803.011 L837.123,800.828 L836.139,796.712 L834.815,794.898 L834.628,793.142 L834.878,790.928 L834.23,785.864 L833.665,784.511 L831.157,781.993 L831.911,779.881 L833.411,776.73 L833.333,775.719 L832.689,773.676 L823.594,772.859 L822.72,766.941 L821.691,764.456 L819.052,760.958 L818.604,759.086 L818.695,757.538 L821.587,744.898 L822.612,743.159 L822.592,742.017 L821.876,740.833 L819.495,738.437 L818.014,737.47 L812.008,731.656 L808.063,726.36 L805.699,719.538 L807.344,718.662 L810.296,718.188 L816.71,721.248 L821.946,722.671 L827.295,723.483 L830.672,723.125 L834.064,723.819 L835.803,722.957 L843.044,722.341 L845.961,721.722 L849.652,720.631 L852.275,720.172 L854.073,719.242 L854.814,718.356 L855.046,717.777 L855.461,714.474 L857.663,707.962 L858.023,704.957 L860.572,704.73 L862.608,704.258 L862.636,703.124 L861.987,702.705 L857.155,701.856 L849.955,699.791 L837.25,692.935 L836.509,692.298 L830.928,690.286 L828.667,690.147 L826.876,689.632 L824.251,689.477 L817.963,689.776 L813.578,688.329 L812.266,688.156 L806.772,689.638 L803.149,689.011 L799.925,687.907 L796.855,686.43 L794.901,685.851 L789.041,683.336 L790.451,678.175 L792.008,671.283 L793.732,669.573 L794.065,668.843 L794.177,666.902 L796.205,661.285 L798.05,657.252 L798.488,655.13 L816.562,647.751 L833.069,644.281 L833.013,644.017 L829.228,639.257 L825.091,632.563 L823.731,631.115 L816.516,625.731 L811.076,619.312 L808.093,617.707 L804.269,614.285 L803.521,612.738 L801.187,605.972 L800.805,603.61 L799.344,598.64 L797.781,595.804 L793.079,584.212 L792.173,580.541 L790.737,564.888 L792.364,557.098 L801.762,541.837 L809.478,536.751 L817.558,533.204 L808.187,555.33 L809.874,558.683 L814.377,558.395 L823.328,557.041 L827.273,555.861 L829.065,557.759 L831.087,570.826 L827.003,579.766 L826.442,582.189 L826.375,583.459 L828.012,587.329 L829.898,589.305 L831.777,590.064 L839.64,590.989 L842.826,592.651 L844.037,593.615 L846.394,597.25 L849.149,600.42 L851.798,602.959 L854.583,604.342 L867.311,607.797 L870.903,608.944 L872.331,610.326 L872.949,612.659 L872.795,615.195 L871.138,619.961 L871.055,621.394 L872.117,623.027 L873.893,624.397 L876.835,625.765 L879.253,625.825 L880.374,625.548 L880.678,624.685 L880.447,621.131 L880.682,618.632 L881.394,617.179 L883.282,616.096 L885.236,612.809 L886.994,611.694 L888.712,611.162 L891.344,610.767 L893.406,611.08 L894.666,612.104 L895.519,613.398 L896.063,615.592 L895.939,616.469 L893.677,619.568 L893.314,620.883 L893.514,625.277 L894.077,626.706 L896.084,627.062 L898.38,627.039 L902.598,626.221 L903.892,626.199 L905.599,626.689 L906.608,627.277 L907.714,628.75 L907.616,629.9 L907.078,630.65 L904.68,632.68 L903.598,633.974 L903.04,635.489 L903.18,636.47 L904.374,638.251 L917.901,649.966 L918.994,651.399 L919.278,653.144 L919.795,654.119 L920.482,654.543 L924.619,654.889 L929.209,655.675 L930.138,655.97 L932.565,657.49 L935.805,658.608 L936.629,659.527 L936.903,660.771 L939.218,665.128 L940.855,666.592 L942.455,667.283 L947.403,663.618 L948.34,662.263 L949.705,661.075 L953.396,656.107 L955.839,657.911 L956.856,658.257 L959.395,660.562 L960.717,662.26 L964.183,665.063 L968.883,661.323 L968.913,661.506 L969.955,659.207 L970.494,658.764 L971.935,658.535 L972.034,658.704 L973.619,658.547 L974.536,656.946 L977.243,655.923 L979.876,655.644 L982.432,655.111 L984.899,649.265 L985.879,647.878 L987.323,647.188 L989.478,644.789 L990.758,642.386 L991.726,641.905 L997.833,636.753 L999.309,634.456 L1002.02,631.386 L1005.01,626.299 L1008.05,622.305 L1010.14,620.856 L1010.98,619.525 L1017.51,618.608 L1017.95,617.882 L1022.35,617.742 L1028.22,619.362 L1028.91,620.516 L1028.88,621.1 L1031.31,625.077 L1034.39,627.144 L1035.9,628.448 L1037.46,630.207 L1039.62,631.315 L1043.44,633.93 L1047.13,636.652 L1047.85,637.4 L1048.79,639.156 L1048.81,639.914 L1045.58,648.048 L1047.71,657.188 L1047.63,658.304 L1051.33,657.969 L1052.32,658.284 L1055.95,660.05 L1058.57,661.881 L1063.36,664.232 L1066.12,666.045 L1068.09,670.926 L1069.98,673.835 L1072.06,678.616 L1072.76,681.025 L1074.58,682.35 L1075.6,683.452 L1075.7,683.378 L1076.67,684.216 L1078.23,684.466 L1079.37,685.392 L1082.62,689.737 L1084.02,689.642 L1088.77,687.969 L1090.89,686.55 L1104.59,683.75 L1106.17,684.284 L1107.62,684.477 L1107.82,684.969 L1115.94,687.773 L1122.62,688.784 L1132.64,689.073 L1143.05,692.301 L1157.28,698.283 L1164.37,698.678 L1165.54,698.241 L1167.49,696.219 L1169.2,695.916 L1170.48,696.365 L1174.32,699.993 L1175.01,699.981 L1178.38,698.995 L1184.91,703.425 L1186.31,704.712 L1187.45,705.436 L1190.77,707.474 L1193.26,708.145 L1194.55,709.018 L1195.93,711.941 L1196.53,713.886 L1197.31,718.535 L1198.38,722.036 L1200.14,724.503 L1206.44,729.142 L1207.52,730.342 L1211.82,732.72 L1212.94,732.929 L1215.39,732.967 L1216.88,733.308 L1218.76,734.167 L1232.57,743.461 L1234.48,744.082 L1243.02,744.646 L1244.39,744.444 L1244.92,744.191 L1246.26,744.215 L1247.98,743.286 L1255.71,736.189 L1256.63,734.05 L1258.81,730.17 L1260.72,727.9 L1262.04,727.421 L1262.52,725.946 L1264.27,723.805 L1265.05,721.416 L1267.09,718.665 L1267.1,717.605 L1267.31,717.048 L1267.92,716.45 L1270.15,711.899 L1271.05,710.512 L1276.3,708.529 L1279,705.189 L1279.9,703.456 L1309.64,679.076 L1308.15,677.353 L1309.22,675.711 L1310.99,673.702 L1315.69,668.987 L1319.47,664.773 L1328.94,656.916 L1329.57,655.053 L1329.68,652.575 L1330.74,649.396 L1336.42,639.889 L1337.15,637.506 L1337.66,636.572 L1339.36,634.807 L1340.07,633.263 L1341.72,630.941 L1342.58,630.265 L1341.23,627.144 L1340.76,624.744 L1340.1,620.024 L1340.18,617.759 L1340.48,616.666 L1342.87,613.061 L1345.28,608.077 L1348.56,600.242 L1349.98,595.377 L1350.55,590.576 L1350.22,585.204 L1350.39,581.544 L1352.24,574.979 L1354.98,572.692 L1356.83,570.439 L1358.11,567.663 L1358.31,565.149 L1357.85,562.545 L1356.69,560.131 L1356.21,558.125 L1356.28,556.459 L1358.39,551.456 L1359.62,550.234 L1361.56,547.688 L1362.2,542.935 L1365.7,539.664 L1368.17,536.622 L1369.72,533.708 L1370.45,532.821 L1370.65,532.236 L1372.17,532.006 L1375.02,532.155 L1381.36,530.657 L1383.92,530.622 L1386.43,529.774 L1393.05,523.711 L1393.52,522.656 L1394.82,515.38 L1394.66,514.87 L1400.43,512.813 L1402.82,510.782 L1403.86,509.237 L1405.86,506.955 L1406.58,505.452 L1411.09,499.595 L1411.94,498.047 L1414.56,495.001 L1414.91,493.903 L1415.14,492.043 L1415.94,490.464 L1423.76,493.194 L1427.2,495.069 L1429.33,495.136 L1430.34,494.688 L1433.81,492.359 L1434.97,491.177 L1436.76,492.025 L1440.25,493.306 L1443.71,490.683 L1463.06,497.023 L1470.45,498.435 L1473.23,499.341 L1474.21,499.885 L1476.45,502.399 L1478.11,505.49 L1479.25,506.494 L1480.5,506.581 L1483.52,506.384 L1486.94,505.404 L1490.53,503.837 L1494.39,503.908 L1496.04,503.747 L1500.28,502.673 L1502.16,504.275 L1504.58,505.83 L1506.72,506.794 L1509.12,507.079 L1512.92,507.065 L1514.44,507.602 L1515.62,508.6 L1516.2,508.303 L1516.98,508.241 L1520.11,506.974 L1523.02,506.915 L1528,507.719 L1531.21,508.932 L1534.66,513.791 L1535.56,514.656 L1536.68,515.248 L1537.94,516.397 L1540.33,517.872 L1541.51,517.717 L1545.77,520.344 L1546.86,520.111 L1550.38,517.535 L1552.43,516.335 L1554.13,515.619 L1555.99,515.285 L1557.39,515.382 L1564.58,516.761 L1573.33,517.264 L1575.24,518.218 L1577.45,519 L1579.14,518.922 L1581.54,518.286 L1584.41,516.825 L1586.4,515.272 L1592.87,505.347 L1593.46,503.223 L1594.13,501.802 L1595.71,499.879 L1597.14,498.725 L1600.2,497.165 L1602.43,496.402 L1605.92,496.097 L1610.44,495.232 L1614.3,493.179 L1619.18,491.612 L1620.49,491.529 L1624.78,492.112 L1626.44,492.849 L1631.43,496.493 L1632.44,497.4 L1634.55,497.399 L1636.64,496.742 L1650.92,489.762 L1651.54,488.603 L1656.11,489.318 L1659.3,490.425 L1661.44,491.606 L1678.82,496.711 L1693.19,504.367 L1696.87,504.295 L1698.34,503.557 L1714.58,485.818 L1711.12,470.508 L1714.1,446.278 L1713.22,443.689 L1710.03,438.089 L1707.89,433.583 L1705.51,427.992 L1713.28,417.087 L1715.35,413.83 L1720.88,402.485 L1731.38,397.186 L1740.21,392.428 L1744.35,386.642 L1745.89,386.452 L1752.14,384.044 L1754.64,381.938 L1755.31,380.914 L1755.88,379.451 L1759.98,379.213 L1762.53,378.1 L1766.81,376.994 L1768.41,376.852 L1771.08,376.946 L1774.09,376.325 L1774.41,376.105 L1775.69,376.042 L1778.6,374.32 L1779.69,374.357 L1781.77,373.825 L1782.78,373.901 L1784.54,374.357 L1785.31,373.848 L1785.78,373.79 L1787.94,375.294 L1788.82,375.285 L1790.9,372.797 L1791.99,371.938 L1792.81,370.015 L1793.36,369.265 L1795.54,368.34 L1797.86,367.065 L1804.08,363.181 L1807.66,361.904 L1809.1,361.558 L1819.48,351.647 L1825.17,348.923 L1828.83,347.849 L1838.44,345.973 L1848.38,343.709 L1860.34,342.276 L1861.9,342.306 L1863.33,341.882 L1878.16,340.279 L1878.52,339.949 L1878.64,339.072 L1875.09,328.648 L1876.3,327.117 L1877.31,326.194 L1878.44,325.52 L1878.66,324.594 L1879.1,324.672 L1879.61,323.073 L1879.94,323.009 L1880.97,320.311 L1882.07,319.083 L1882.53,317.386 L1881.27,317.477 L1877.85,321.555 L1872.97,324.069 L1872.16,324.112 L1871.45,323.802 L1868.51,317.308 L1868.06,313.926 L1869.19,302.711 L1869.48,301.309 L1870.18,299.316 L1876.82,304.679 L1885.92,304.362 L1889.11,304.677 L1895.11,304.288 L1899.27,303.329 L1906.3,303.327 L1906.71,302.684 L1909.08,302.274 L1910.07,302.41 L1915.06,301.871 L1918.66,301.99 L1920.86,302.565 L1923.96,303.992 L1925.76,306.13 L1928.2,308.366 L1931.56,311.008 L1939.16,312.281 L1939.26,310.634 L1940.18,310.989 L1946.44,311.383 L1944.9,329.994 L1944.09,334.452 L1939.81,383.532 L1941.58,384.553 L1941.32,390.474 L1941.68,396.146 L1942.89,404.976 L1944.08,410.603 L1946.62,418.944 L1949.54,426.355 L1953.4,434.062 L1956.34,439.135 L1955.45,439.603 L1956.94,442.679 L1960.87,448.555 L1960.68,448.91 L1962.06,450.87 L1962.54,450.687 L1967.47,457.569 L1977.83,471.319 L1992.93,490.682 L1992.62,491.007 L1998.38,498.18 L2007.52,510.173 L2009.85,512.583 L2015.73,519.813 L2031.51,542.666 L2042.72,562.9 L2045.59,567.285 L2051.91,578.622 L2056.87,587.939 L2077.12,627.862 L2082.28,638.473 L2086.15,647.984 L2090.42,661.417 L2092.06,668.393 L2093.82,677.649 L2095.07,687.277 L2097.77,731.98 L2096.79,734.455 L2098.86,750.691 L2098.49,751.876 L2101.24,763.086 L2103.75,774.68 L2091.74,775.664 L2084.92,775.536 L2082.55,775.204 L2079.19,775.301 L2073.67,776.736 L2069.82,777.936 L2068.98,777.348 L2060.78,779.557 L2060.38,781.454 L2060.28,789.153 L2060.61,798.604 L2061.33,805.108 L2061.98,805.372 L2060.95,811.856 L2068.35,818.417 L2068.43,819.567 L2063.81,824.744 L2062.94,832.762 L2062.71,838.675 L2062.33,840.281 L2061.11,842.259 L2060.77,843.488 L2059.99,844.866 L2058.45,849.125 L2057.78,850.29 L2055.51,853.032 L2051.39,857.428 L2049.65,861.387 L2049.03,862.433 L2047.51,863.957 L2046.05,867.179 L2046.9,868.086 L2047.7,868.283 L2053.4,871.544 L2056.56,874.283 L2058.15,876.146 L2061.16,876.88 L2061.91,876.826 L2064.37,876.518 L2067.76,875.442 L2068.24,875.859 L2072.77,878.19 L2073.75,879.54 L2074.08,879.32 L2074.18,879.438 L2075.02,885.692 L2075.22,888.408 L2076.69,890.38 L2076.96,890.229 L2078.48,891.903 L2079.34,892.442 L2083.54,895.989 L2086.15,899.271 L2088.02,902.917 L2088.41,904.152 L2089.25,914.985 L2090.07,921.362 L2090.6,927.441 L2096.37,935.292 L2099.04,936.127 L2101.37,937.488 L2103.99,940.133 L2109.96,945.583 L2110.21,946.043 L2113.86,949.955 L2127.55,968.524 L2129.49,970.733 L2131.81,974.01 L2133.49,977.371 L2135.6,982.688 L2137.54,986.869 L2139.94,991.475 L2141.66,995.877 L2143.65,998.48 L2144.26,999.684 L2146.15,1002.22 L2150.51,1006.86 L2153.25,1010.75 L2155.8,1015.68 L2156.74,1017.99 L2158.32,1023.17 L2159.55,1026.36 L2161.17,1029.32 L2163.39,1032.6 L2165.87,1034.76 L2167.32,1036.64 L2167.9,1038.11 L2167.92,1039.48 L2164,1043.68 L2163.6,1044.4 L2164.17,1045.3 L2178.74,1056.52 L2179.34,1058.67 L2182.51,1061.36 L2234.02,1100.01 L2197.03,1149.31 L2185.45,1133.92 L2181.92,1138.97 L2175.27,1134.32 L2153.74,1151.18 L2158.53,1157.55 L2164.15,1148.98 L2170.43,1143.46 L2172.92,1146.98 L2167.09,1152.27 L2159.48,1163.95 L2155.51,1167.13 L2153.85,1164.7 L2155.51,1161.99 L2139.62,1140.83 L2116.74,1153.01 L2107.69,1164.58 L2118.97,1178.07 L2116.56,1180.07 L2104.94,1166.17 L2094.76,1173.78 L2075.24,1198.75 L2086.87,1214.22 L2082.54,1217.36 L2073.63,1205.51 L2045.92,1226.25 L2034.79,1240.47 L2045.26,1255.26 L2037.16,1261.01 L2024.84,1243.64 L1993.39,1265.95 L1975.2,1290.62 L1978.76,1296.39 L1983.47,1302.82 L1977.03,1307.59 L1971,1299.28 L1942.14,1306.47 L1933.24,1320.74 L1943.99,1335.3 L1946.47,1333.48 L1952.08,1341.05 L1947.99,1347.4 L1944.12,1352.6 L1939.05,1358.66 L1934.44,1363.61 L1928.9,1368.87 L1923.3,1373.56 L1918.8,1376.97 L1911.68,1381.18 L1906,1383.85 L1902.6,1379.27 L1910.28,1375.93 L1911.47,1376.71 L1915.4,1374.37 L1918.75,1372 L1924.2,1367.51 L1931.93,1360.3 L1941.03,1349.94 L1938.77,1346.9 L1926.75,1355.78 L1928.4,1358.02 L1921.29,1363.27 L1915.49,1355.42 L1934.64,1341.29 L1923.26,1325.87 L1921.98,1326.82 L1921.03,1325.54 L1901.27,1340.12 L1902.21,1341.41 L1900.93,1342.34 L1909.98,1354.61 L1913.75,1363.93 L1908.26,1367.79 L1904.16,1369.61 L1876.27,1379.69 L1863.83,1398.45 L1880.62,1409.81 L1873.54,1420.7 L1856.86,1409.4 L1831.5,1452.17 L1786.86,1530.35 L1788.9,1543.46 L1799.45,1548.88 L1805.25,1540.19 L1809.5,1543.1 L1757.5,1618.73 L1748.09,1639.19 L1748.73,1639.49 L1747.31,1642.55 L1745.16,1641.56 L1723.92,1687.75 L1715.96,1684.11 L1718.67,1678.22 L1723.07,1680.24 L1749.01,1623.76 L1744.15,1621.52 L1746.24,1616.97 L1752.2,1616.2 L1777.05,1580.04 L1764.95,1571.72 L1761.11,1577.3 L1757.14,1585.59 L1751.48,1592.33 L1742.34,1599.05 L1744.07,1604.05 L1750.05,1608.14 L1747.79,1611.46 L1740.99,1606.76 L1738.59,1599.65 L1735.82,1600.57 L1735.01,1592.17 L1733.29,1592.36 L1732.71,1586.35 L1738.03,1585.61 L1738.41,1589.53 L1752.76,1573.23 L1757.51,1558.25 L1753.6,1557.15 L1754.59,1553.73 L1758.27,1554.77 L1764.3,1534.45 L1762.12,1533.82 L1757.69,1548.41 L1755.08,1547.64 L1751.48,1560.02 L1740.26,1556.78 L1741.61,1552.1 L1736.16,1550.52 L1742.98,1527.61 L1739.19,1526.56 L1741.04,1519.88 L1764.16,1526.72 L1765.36,1522.23 L1751.68,1518.55 L1756.03,1503.01 L1769.78,1506.71 L1772.46,1497.02 L1768.98,1496.05 L1765.79,1494.15 L1767.25,1491.68 L1766.13,1490.53 L1770.04,1486.67 L1774.49,1479.21 L1767.87,1475.23 L1761.02,1477.56 L1754.45,1501.76 L1746.59,1499.69 L1740.64,1494.62 L1742.32,1492.8 L1747.39,1497.01 L1748.35,1493.51 L1743.06,1489.76 L1744.06,1488.22 L1748.83,1491.6 L1749.85,1488.07 L1744.33,1484.83 L1745.25,1483.26 L1750.35,1486.24 L1751.35,1482.63 L1745.35,1479.92 L1746.13,1478.23 L1751.84,1480.83 L1752.86,1477.14 L1746.76,1474.85 L1747.37,1473.11 L1753.35,1475.35 L1754.35,1471.69 L1749.24,1470.29 L1749.76,1468.51 L1754.74,1469.91 L1770.16,1464.86 L1771.23,1461.67 L1769.1,1460.94 L1769.89,1458.58 L1772.02,1459.31 L1778.35,1441.22 L1774.14,1412.11 L1773.04,1411.05 L1772.7,1408.69 L1760.69,1398.3 L1755.74,1398.36 L1749.45,1399.56 L1756.15,1448.35 L1730.59,1479.31 L1714.65,1466.22 L1713.79,1459.02 L1719.97,1463.84 L1719.68,1460.21 L1740.39,1435.27 L1736.96,1410.94 L1736.59,1410.62 L1703.31,1450.89 L1713.78,1459 L1714.63,1466.2 L1702.18,1455.86 L1686.42,1474.91 L1728.68,1509.84 L1716.26,1524.85 L1678.21,1493.3"/>
   <path fill-rule="evenodd" vector-effect="none" d="M757.47,756.035 L733.636,759.773 L730.458,760.404 L724.477,762.669 L721.196,762.452 L703.844,759.483 L696.002,762.016 L700.255,778.596 L696.341,790.852 L688.652,809.112 L667.228,814.098 L635.544,820.968 L640.259,825.511 L642.418,827.849 L643.892,829.878 L644.978,831.924 L645.649,834.164 L646.044,836.259 L647.514,838.44 L622.949,851.588 L598.592,796.765 L604.458,792.217 L608.908,788.107 L614.006,781.51 L619.142,775.93 L624.264,769.426 L627.827,756.068 L630.955,746.778 L631.194,745.393 L631.21,743.77 L629.719,739.448 L629.483,735.867 L628.174,730.279 L628.444,721.156 L627.504,717.711 L627.373,715.464 L627.594,714.013 L629.339,709.696 L629.417,706.905 L628.634,704.072 L626.705,700.413 L624.346,697.046 L622.202,694.928 L620.261,693.622 L616.779,691.941 L614.369,689.987 L613.894,689.057 L613.67,687.807 L613.902,686.153 L608.852,686.421 L607.88,682.613 L606.277,678.709 L604.676,675.623 L603.07,673.702 L602.287,673.212 L600.491,672.798 L599.913,672.352 L598.695,670.733 L597.043,667.154 L604.246,662.042 L607.914,660.603 L612.085,660.291 L622.191,658.449 L638.439,653.663 L641.95,652.431 L646.048,649.995 L648.796,648.902 L650.479,648.032 L651.71,646.274 L652.776,643.953 L653.524,637.194 L654.993,631.337 L656.052,628.491 L660.71,618.512 L661.266,616.881 L661.926,612.604 L662.533,605.951 L665.161,542.88 L668.513,523.756 L688.489,526.039 L692.122,526.221 L692.625,527.027 L692.513,527.829 L691.676,529.404 L688.762,541.03 L687.879,546.707 L688.839,554.519 L689.446,555.725 L690.488,556.344 L693.317,556.365 L697.674,555.837 L712.651,552.227 L713.996,577.466 L713.102,579.48 L720.801,580.663 L724.899,581.081 L729.26,581.284 L764.03,590.484 L753.17,617.964 L752.301,619.496 L751.22,622.173 L751.162,625.786 L747.674,631.437 L745.485,635.891 L742.495,639.341 L739.722,643.834 L738.628,646.215 L738.644,649.34 L739.32,653.577 L739.888,660.613 L762.739,671.252 L772.237,708.223 L757.47,756.035"/>
   <path fill-rule="evenodd" vector-effect="none" d="M795.926,800.526 L787.196,808.402 L782.897,811.461 L760.586,837.586 L744.358,841.853 L747.076,836.392 L747.349,827.615 L746.327,819.499 L747.292,816.574 L755.38,806.962 L773.732,799.485 L781.762,791.208 L785.718,785.077 L787.023,779.401 L787.939,783.84 L786.686,786.952 L795.926,800.526"/>
  </g>
  <g font-style="normal" fill="none" stroke-width="1" stroke="#000000" transform="matrix(11.8081,0,0,11.8081,0,0)" stroke-opacity="1" font-size="54.1667" stroke-linecap="square" font-weight="400" font-family=".SF NS Text" stroke-linejoin="bevel"/>
  <g font-style="normal" fill="none" stroke-width="1" stroke="#000000" transform="matrix(11.8081,0,0,11.8081,0,0)" stroke-opacity="1" font-size="54.1667" stroke-linecap="square" font-weight="400" font-family=".SF NS Text" stroke-linejoin="bevel"/>
  <g font-style="normal" fill="none" stroke-width="1" stroke="#000000" transform="matrix(11.8081,0,0,11.8081,0,0)" stroke-opacity="1" font-size="54.1667" stroke-linecap="square" font-weight="400" font-family=".SF NS Text" stroke-linejoin="bevel"/>
  <g font-style="normal" fill="none" stroke-width="1" stroke="#000000" transform="matrix(1,0,0,1,0,0)" stroke-opacity="1" font-size="54.1667" stroke-linecap="square" font-weight="400" font-family=".SF NS Text" stroke-linejoin="bevel"/>
  <g font-style="normal" fill="none" stroke-width="1" stroke="#000000" transform="matrix(11.8081,0,0,11.8081,0,0)" stroke-opacity="1" font-size="54.1667" stroke-linecap="square" font-weight="400" font-family=".SF NS Text" stroke-linejoin="bevel"/>
  <g font-style="normal" fill="none" stroke-width="1" stroke="#000000" transform="matrix(11.8081,0,0,11.8081,0,0)" stroke-opacity="1" font-size="54.1667" stroke-linecap="square" font-weight="400" font-family=".SF NS Text" stroke-linejoin="bevel"/>
  <g font-style="normal" fill="none" stroke-width="1" stroke="#000000" transform="matrix(11.8081,0,0,11.8081,0,0)" stroke-opacity="1" font-size="54.1667" stroke-linecap="square" font-weight="400" font-family=".SF NS Text" stroke-linejoin="bevel"/>
  <g font-style="normal" fill="none" stroke-width="1" stroke="#000000" transform="matrix(11.8081,0,0,11.8081,0,0)" stroke-opacity="1" font-size="54.1667" stroke-linecap="square" font-weight="400" font-family=".SF NS Text" stroke-linejoin="bevel"/>
  <g font-style="normal" fill="none" stroke-width="1" stroke="#000000" transform="matrix(1,0,0,1,0,0)" stroke-opacity="1" font-size="54.1667" stroke-linecap="square" font-weight="400" font-family=".SF NS Text" stroke-linejoin="bevel"/>
 </g>
</svg>
